name Walk8.mot
datacolumns 19
datarows 27
range 3.19800000 3.22400000
endheader

                time	   L_ground_force_vx	   L_ground_force_vy	   L_ground_force_vz	   L_ground_force_px	   L_ground_force_py	   L_ground_force_pz	   R_ground_force_vx	   R_ground_force_vy	   R_ground_force_vz	   R_ground_force_px	   R_ground_force_py	   R_ground_force_pz	   L_ground_torque_x	   L_ground_torque_y	   L_ground_torque_z	   R_ground_torque_x	   R_ground_torque_y	   R_ground_torque_z	
          3.19800000	          5.72399572	         87.59462583	          1.01643275	          0.50137211	          0.00000000	          0.12477844	          0.00000000	          0.00000000	          0.00000000	          0.00000000	          0.00000000	          0.00000000	          0.00000000	         -2.18087714	          0.00000000	          0.00000000	          0.00000000	          0.00000000	
          3.19900000	          5.22168328	         83.76784050	          0.81416546	          0.50306504	          0.00000000	          0.12466248	          0.00000000	          0.00000000	          0.00000000	          0.00000000	          0.00000000	          0.00000000	          0.00000000	         -2.09253347	          0.00000000	          0.00000000	          0.00000000	          0.00000000	
          3.20000000	          4.75592350	         79.95119675	          0.64157903	          0.50487699	          0.00000000	          0.12447402	          0.00000000	          0.00000000	          0.00000000	          0.00000000	          0.00000000	          0.00000000	          0.00000000	         -1.99946352	          0.00000000	          0.00000000	          0.00000000	          0.00000000	
          3.20100000	          4.32426465	         76.15388804	          0.48183891	          0.50641371	          0.00000000	          0.12418210	          0.00000000	          0.00000000	          0.00000000	          0.00000000	          0.00000000	          0.00000000	          0.00000000	         -1.91121317	          0.00000000	          0.00000000	          0.00000000	          0.00000000	
          3.20200000	          3.90625054	         72.45915832	          0.32803019	          0.50739399	          0.00000000	          0.12383464	          0.00000000	          0.00000000	          0.00000000	          0.00000000	          0.00000000	          0.00000000	          0.00000000	         -1.83368694	          0.00000000	          0.00000000	          0.00000000	          0.00000000	
          3.20300000	          3.47142502	         68.94940574	          0.19182956	          0.50784993	          0.00000000	          0.12358889	          0.00000000	          0.00000000	          0.00000000	          0.00000000	          0.00000000	          0.00000000	          0.00000000	         -1.76514767	          0.00000000	          0.00000000	          0.00000000	          0.00000000	
          3.20400000	          3.00363678	         65.64899989	          0.08526833	          0.50806034	          0.00000000	          0.12372334	          0.00000000	          0.00000000	          0.00000000	          0.00000000	          0.00000000	          0.00000000	          0.00000000	         -1.70150915	          0.00000000	          0.00000000	          0.00000000	          0.00000000	
          3.20500000	          2.51470737	         62.52586845	          0.00164384	          0.50828930	          0.00000000	          0.12440875	          0.00000000	          0.00000000	          0.00000000	          0.00000000	          0.00000000	          0.00000000	          0.00000000	         -1.64291938	          0.00000000	          0.00000000	          0.00000000	          0.00000000	
          3.20600000	          2.03585120	         59.52127134	         -0.07880735	          0.50863887	          0.00000000	          0.12541290	          0.00000000	          0.00000000	          0.00000000	          0.00000000	          0.00000000	          0.00000000	          0.00000000	         -1.59025229	          0.00000000	          0.00000000	          0.00000000	          0.00000000	
          3.20700000	          1.59648849	         56.57942008	         -0.17378944	          0.50913521	          0.00000000	          0.12626422	          0.00000000	          0.00000000	          0.00000000	          0.00000000	          0.00000000	          0.00000000	          0.00000000	         -1.53926154	          0.00000000	          0.00000000	          0.00000000	          0.00000000	
          3.20800000	          1.20555319	         53.67597562	         -0.29508077	          0.50982503	          0.00000000	          0.12665081	          0.00000000	          0.00000000	          0.00000000	          0.00000000	          0.00000000	          0.00000000	          0.00000000	         -1.48416301	          0.00000000	          0.00000000	          0.00000000	          0.00000000	
          3.20900000	          0.84912363	         50.83706430	         -0.44811160	          0.51078081	          0.00000000	          0.12652356	          0.00000000	          0.00000000	          0.00000000	          0.00000000	          0.00000000	          0.00000000	          0.00000000	         -1.42420135	          0.00000000	          0.00000000	          0.00000000	          0.00000000	
          3.21000000	          0.50529415	         48.12092593	         -0.62517640	          0.51209225	          0.00000000	          0.12595606	          0.00000000	          0.00000000	          0.00000000	          0.00000000	          0.00000000	          0.00000000	          0.00000000	         -1.36310807	          0.00000000	          0.00000000	          0.00000000	          0.00000000	
          3.21100000	          0.16006401	         45.57924853	         -0.80517604	          0.51378374	          0.00000000	          0.12512547	          0.00000000	          0.00000000	          0.00000000	          0.00000000	          0.00000000	          0.00000000	          0.00000000	         -1.30455763	          0.00000000	          0.00000000	          0.00000000	          0.00000000	
          3.21200000	         -0.19111924	         43.23577267	         -0.96858414	          0.51564257	          0.00000000	          0.12443803	          0.00000000	          0.00000000	          0.00000000	          0.00000000	          0.00000000	          0.00000000	          0.00000000	         -1.25060288	          0.00000000	          0.00000000	          0.00000000	          0.00000000	
          3.21300000	         -0.54834423	         41.07493644	         -1.10855791	          0.51722765	          0.00000000	          0.12439699	          0.00000000	          0.00000000	          0.00000000	          0.00000000	          0.00000000	          0.00000000	          0.00000000	         -1.20186301	          0.00000000	          0.00000000	          0.00000000	          0.00000000	
          3.21400000	         -0.90836450	         39.03824660	         -1.22557466	          0.51818067	          0.00000000	          0.12515809	          0.00000000	          0.00000000	          0.00000000	          0.00000000	          0.00000000	          0.00000000	          0.00000000	         -1.15610360	          0.00000000	          0.00000000	          0.00000000	          0.00000000	
          3.21500000	         -1.26769817	         37.05322733	         -1.32098527	          0.51841903	          0.00000000	          0.12626893	          0.00000000	          0.00000000	          0.00000000	          0.00000000	          0.00000000	          0.00000000	          0.00000000	         -1.10735080	          0.00000000	          0.00000000	          0.00000000	          0.00000000	
          3.21600000	         -1.62708350	         35.08353768	         -1.40048115	          0.51801370	          0.00000000	          0.12691930	          0.00000000	          0.00000000	          0.00000000	          0.00000000	          0.00000000	          0.00000000	          0.00000000	         -1.04981098	          0.00000000	          0.00000000	          0.00000000	          0.00000000	
          3.21700000	         -1.99248415	         33.15371787	         -1.47641844	          0.51698644	          0.00000000	          0.12655109	          0.00000000	          0.00000000	          0.00000000	          0.00000000	          0.00000000	          0.00000000	          0.00000000	         -0.98415616	          0.00000000	          0.00000000	          0.00000000	          0.00000000	
          3.21800000	         -2.37013983	         31.33971923	         -1.56047802	          0.51523199	          0.00000000	          0.12536620	          0.00000000	          0.00000000	          0.00000000	          0.00000000	          0.00000000	          0.00000000	          0.00000000	         -0.91746419	          0.00000000	          0.00000000	          0.00000000	          0.00000000	
          3.21900000	         -2.75459021	         29.73392527	         -1.65564150	          0.51296415	          0.00000000	          0.12420307	          0.00000000	          0.00000000	          0.00000000	          0.00000000	          0.00000000	          0.00000000	          0.00000000	         -0.85645142	          0.00000000	          0.00000000	          0.00000000	          0.00000000	
          3.22000000	         -3.12379603	         28.36389577	         -1.75252943	          0.51112309	          0.00000000	          0.12374588	          0.00000000	          0.00000000	          0.00000000	          0.00000000	          0.00000000	          0.00000000	          0.00000000	         -0.80256616	          0.00000000	          0.00000000	          0.00000000	          0.00000000	
          3.22100000	         -3.44732118	         27.10712289	         -1.82852758	          0.51054117	          0.00000000	          0.12389469	          0.00000000	          0.00000000	          0.00000000	          0.00000000	          0.00000000	          0.00000000	          0.00000000	         -0.75233981	          0.00000000	          0.00000000	          0.00000000	          0.00000000	
          3.22200000	         -3.68788886	         25.69334588	         -1.85646009	          0.51098309	          0.00000000	          0.12397433	          0.00000000	          0.00000000	          0.00000000	          0.00000000	          0.00000000	          0.00000000	          0.00000000	         -0.70042331	          0.00000000	          0.00000000	          0.00000000	          0.00000000	
          3.22300000	         -3.78737363	         23.78793939	         -1.81643497	          0.51166076	          0.00000000	          0.12340705	          0.00000000	          0.00000000	          0.00000000	          0.00000000	          0.00000000	          0.00000000	          0.00000000	         -0.64134313	          0.00000000	          0.00000000	          0.00000000	          0.00000000	
          3.22400000	         -3.66149303	         21.07990891	         -1.69267195	          0.51213965	          0.00000000	          0.12219808	          0.00000000	          0.00000000	          0.00000000	          0.00000000	          0.00000000	          0.00000000	          0.00000000	         -0.56779384	          0.00000000	          0.00000000	          0.00000000	          0.00000000	
